<?xml version="1.0" encoding="utf-8"?>
<!-- Generator: Adobe Illustrator 17.0.0, SVG Export Plug-In . SVG Version: 6.00 Build 0)  -->
<!DOCTYPE svg PUBLIC "-//W3C//DTD SVG 1.1//EN" "http://www.w3.org/Graphics/SVG/1.1/DTD/svg11.dtd">
<svg version="1.1" id="Layer_1" xmlns="http://www.w3.org/2000/svg" xmlns:xlink="http://www.w3.org/1999/xlink" x="0px" y="0px"
	 width="730px" height="360px" viewBox="0 0 730 360" enable-background="new 0 0 730 360" xml:space="preserve">
<g>
	<path fill="#D0EB51" d="M730,207.675c0,7.27-5.894,13.164-13.164,13.164H13.164C5.894,220.839,0,214.945,0,207.675v-4.943
		c0-7.27,5.894-13.164,13.164-13.164h703.672c7.27,0,13.164,5.894,13.164,13.164V207.675z"/>
	<rect x="11.06" y="220.839" fill="#94CE28" width="707.879" height="139.161"/>
	<rect x="11.06" y="282.522" fill="#1B9B05" width="707.879" height="77.478"/>
	<g>
		<g>
			<g>
				<g>
					<g>
						<g>
							<g>
								<g>
									<g>
										<g>
											<path fill="#94CE28" d="M439.989,95.143l3.708,59.502v21.444h-17.173c-9.153,0-16.556-7.42-16.573-16.573
												c-0.027-15.127,6.556-25.188,5.252-43.23C414.616,108.163,439.621,95.113,439.989,95.143z"/>
										</g>
										<g>
											<path fill="#D0EB51" d="M414.485,107.887c0-9.153,8.165-18.808,17.318-18.808h9.952v24.884
												c0,9.153-9.186,16.761-18.338,16.761h-15.7C412.967,124.39,414.485,107.887,414.485,107.887z"/>
											<g>
												<path fill="#94CE28" d="M592.633,93.96v59.502v21.444h13.464c9.153,0,16.556-7.42,16.573-16.573
													c0.027-15.127-6.556-25.188-5.252-43.23C618.005,106.981,593,93.931,592.633,93.96z"/>
											</g>
											<path fill="#D0EB51" d="M618.136,107.887c0-9.153-8.165-18.808-17.318-18.808h-8.248l0.062,25.072
												c0,9.153,7.42,16.573,16.573,16.573h15.7C619.654,124.39,618.136,107.887,618.136,107.887z"/>
										</g>
									</g>
									<path fill="#56BA22" d="M572.999,46.366h-56.688v0.472l-55.226-0.472c-11.677,0-21.143,13.322-21.143,25v97.06
										c0,11.677,9.466,21.143,21.143,21.143h55.226h56.688c11.677,0,21.143-9.465,21.143-21.143v-97.06
										C594.142,59.688,584.677,46.366,572.999,46.366z"/>
									<path fill="#94CE28" d="M571.911,26.855h-55.599h-55.6c-12.278,0-22.231,13.809-22.231,26.088v18.331
										c0,12.277,9.953,22.231,22.231,22.231h55.6h55.599c12.278,0,22.231-9.953,22.231-22.231V52.943
										C594.142,40.665,584.189,26.855,571.911,26.855z"/>
									<path fill="#94CE28" d="M558.455,104.101H516.06h-42.395c-9.153,0-16.573,7.42-16.573,16.572v35.867
										c0,9.153,7.42,16.572,16.573,16.572h42.395h42.395c9.153,0,16.573-7.419,16.573-16.572v-35.867
										C575.028,111.521,567.607,104.101,558.455,104.101z"/>
									<g>
										<g>
											<g>
												<path fill="#127045" d="M559.222,26.856v84.554c0,5.758-4.668,10.427-10.427,10.427s-10.427-4.669-10.427-10.427V26.856
													H559.222z"/>
											</g>
										</g>
										<g>
											<g>
												<path fill="#FFFFFF" d="M532.575,67.343v19.859c0,3.471,2.821,6.291,6.291,6.291h19.862c3.466,0,6.288-2.82,6.288-6.291
													V67.343c0-3.468-2.821-6.288-6.288-6.288h-19.862C535.396,61.055,532.575,63.875,532.575,67.343z M538.368,67.342
													c0-0.275,0.222-0.496,0.497-0.496h19.862c0.273,0,0.495,0.221,0.495,0.496v19.86c0,0.275-0.222,0.499-0.495,0.499
													h-19.862c-0.275,0-0.497-0.224-0.497-0.499V67.342z"/>
											</g>
											<path fill="#FFFFFF" d="M546.628,65.23c0-1.197,0.97-2.168,2.168-2.168l0,0c1.197,0,2.168,0.97,2.168,2.168v10.871
												c0,1.197-0.97,2.168-2.168,2.168l0,0c-1.197,0-2.168-0.97-2.168-2.168V65.23z"/>
										</g>
									</g>
									<g>
										<g>
											<g>
												<path fill="#127045" d="M473.444,26.856v84.37c0,5.758,4.668,10.427,10.427,10.427c5.759,0,10.427-4.669,10.427-10.427
													v-84.37H473.444z"/>
											</g>
										</g>
										<g>
											<g>
												<path fill="#FFFFFF" d="M493.801,61.055h-19.862c-3.466,0-6.288,2.82-6.288,6.288v19.859
													c0,3.471,2.821,6.291,6.288,6.291h19.862c3.469,0,6.291-2.82,6.291-6.291V67.343
													C500.091,63.875,497.27,61.055,493.801,61.055z M494.298,87.202c0,0.275-0.222,0.499-0.497,0.499h-19.861
													c-0.273,0-0.496-0.224-0.496-0.499v-19.86c0-0.275,0.222-0.496,0.496-0.496H493.8c0.275,0,0.497,0.221,0.497,0.496
													V87.202z"/>
											</g>
											<path fill="#FFFFFF" d="M486.038,65.23c0-1.197-0.97-2.168-2.168-2.168l0,0c-1.197,0-2.168,0.97-2.168,2.168v10.871
												c0,1.197,0.97,2.168,2.168,2.168l0,0c1.197,0,2.168-0.97,2.168-2.168V65.23z"/>
										</g>
									</g>
									<path fill="#1B9B05" d="M516.297,0c-14.832,0-26.855,12.023-26.855,26.855h10.187c0-9.206,7.463-16.668,16.669-16.668
										c9.206,0,16.669,7.463,16.669,16.668h10.187C543.152,12.023,531.129,0,516.297,0z"/>
								</g>
							</g>
						</g>
						<g>
							<g>
								<path fill="#127045" d="M561.055,128.819c2.184,0,3.96,1.721,3.96,3.908l0,0c0,2.189-1.776,3.908-3.96,3.908h-91.8
									c-2.189,0-3.96-1.719-3.96-3.908l0,0c0-2.187,1.771-3.908,3.96-3.908H561.055z"/>
							</g>
							<path fill="#FFFFFF" d="M565.015,143.81c0,3.197-2.597,5.79-5.789,5.79c-3.241,0-5.792-2.234-5.792-5.79
								c0-3.197,2.593-11.084,5.792-11.084C562.418,132.727,565.015,140.613,565.015,143.81z"/>
						</g>
					</g>
				</g>
			</g>
		</g>
		<g>
			<g>
				<g>
					<path fill="#56BA22" d="M118.61,119.812c-7.453,0-13.516,6.063-13.516,13.515v42.725c0,7.453,6.063,13.516,13.516,13.516
						h45.803v-69.755H118.61z"/>
					<path fill="#94CE28" d="M258.715,119.812h-94.301v69.755h94.301c7.452,0,13.515-6.063,13.515-13.516v-42.725
						C272.229,125.875,266.167,119.812,258.715,119.812z"/>
				</g>
				<g>
					<g>
						<g>
							<g>
								<path fill="#56BA22" d="M255.826,142.555h-73.458c-1.948,0-3.527-1.579-3.527-3.527c0-1.948,1.579-3.527,3.527-3.527h73.458
									c1.948,0,3.527,1.579,3.527,3.527C259.353,140.976,257.774,142.555,255.826,142.555z"/>
							</g>
							<g>
								<path fill="#BF2E2E" d="M148.008,142.555h-26.507c-1.948,0-3.527-1.579-3.527-3.527c0-1.948,1.579-3.527,3.527-3.527h26.507
									c1.948,0,3.527,1.579,3.527,3.527C151.535,140.976,149.956,142.555,148.008,142.555z"/>
							</g>
							<g>
								<path fill="#F1FF8D" d="M255.826,158.217h-73.458c-1.948,0-3.527-1.579-3.527-3.527c0-1.948,1.579-3.527,3.527-3.527h73.458
									c1.948,0,3.527,1.579,3.527,3.527C259.353,156.638,257.774,158.217,255.826,158.217z"/>
							</g>
							<g>
								<path fill="#F1FF8D" d="M255.826,173.88h-73.458c-1.948,0-3.527-1.579-3.527-3.527c0-1.948,1.579-3.527,3.527-3.527h73.458
									c1.948,0,3.527,1.579,3.527,3.527C259.353,172.301,257.774,173.88,255.826,173.88z"/>
							</g>
						</g>
					</g>
				</g>
			</g>
			<path fill="#FFFFFF" d="M117.996,158.242c0-3.556,2.882-6.438,6.438-6.438h20.685c3.556,0,6.438,2.882,6.438,6.438v7.488
				c0,3.556-2.882,6.438-6.438,6.438h-20.685c-3.556,0-6.438-2.882-6.438-6.438V158.242z"/>
		</g>
		<g>
			<path fill="#BF2E2E" d="M312.483,181.311c0,4.56-3.697,8.257-8.257,8.257h-63.994c-4.56,0-8.257-3.697-8.257-8.257V92.924
				c0-4.56,3.697-8.257,8.257-8.257h63.994c4.56,0,8.257,3.697,8.257,8.257V181.311z"/>
			<g>
				<g>
					<path fill="#FFFFFF" d="M272.239,109.327h-0.003c-15.323-0.005-27.793,12.46-27.798,27.781
						c-0.005,15.324,12.458,27.795,27.781,27.8h0.003c15.322,0.004,27.793-12.459,27.798-27.783
						C300.025,121.802,287.561,109.331,272.239,109.327z M261.668,115.438c-1.273,1.7-2.387,3.704-3.303,5.96l-4.424-0.002
						C256.074,118.918,258.701,116.889,261.668,115.438z M251.352,125.041l5.784,0.002c-0.89,3.122-1.436,6.573-1.576,10.246
						l-7.385-0.002C248.457,131.573,249.576,128.098,251.352,125.041z M250.923,148.456c-1.538-2.879-2.491-6.106-2.749-9.526
						l7.385,0.002c0.128,3.39,0.595,6.597,1.363,9.525L250.923,148.456z M253.33,152.1l4.756,0.001
						c0.966,2.548,2.165,4.809,3.57,6.688C258.404,157.197,255.56,154.909,253.33,152.1z M270.401,160.988
						c-3.32-0.903-6.281-4.193-8.331-8.885l8.333,0.002L270.401,160.988z M270.404,148.462l-9.665-0.003
						c-0.857-2.893-1.393-6.125-1.536-9.526l11.203,0.004L270.404,148.462z M270.408,135.293l-11.204-0.003
						c0.161-3.69,0.79-7.173,1.781-10.246l9.425,0.003L270.408,135.293z M270.413,121.402l-8-0.002
						c2.035-4.302,4.855-7.302,8.002-8.152L270.413,121.402z M293.115,125.053c1.772,3.059,2.89,6.534,3.168,10.248l-7.384-0.002
						c-0.138-3.673-0.685-7.125-1.57-10.247L293.115,125.053z M290.527,121.408l-4.425-0.002c-0.913-2.256-2.028-4.261-3.298-5.963
						C285.77,116.898,288.396,118.928,290.527,121.408z M274.06,113.248c3.145,0.853,5.963,3.854,7.996,8.158l-7.998-0.003
						L274.06,113.248z M274.056,125.047l9.422,0.003c0.99,3.074,1.619,6.558,1.775,10.247l-11.2-0.004L274.056,125.047z
						 M274.052,138.938l11.201,0.003c-0.147,3.401-0.682,6.633-1.542,9.525l-9.661-0.003L274.052,138.938z M274.045,160.989
						l0.003-8.882l8.332,0.002C280.33,156.8,277.366,160.088,274.045,160.989z M282.791,158.796
						c1.405-1.877,2.606-4.139,3.573-6.686l4.756,0.002C288.886,154.919,286.043,157.205,282.791,158.796z M293.529,148.469
						l-5.997-0.002c0.769-2.928,1.235-6.135,1.367-9.525l7.384,0.002C296.022,142.365,295.066,145.592,293.529,148.469z"/>
				</g>
			</g>
		</g>
		<g>
			<g>
				<path fill="#127045" d="M390.396,183.587c0,3.303-2.678,5.98-5.98,5.98h-37.331c-3.303,0-5.98-2.678-5.98-5.98v-67.866
					c0-3.303,2.678-5.98,5.98-5.98h37.331c3.303,0,5.98,2.678,5.98,5.98V183.587z"/>
				<rect x="349.478" y="118.114" fill="#FFFFFF" width="32.547" height="50.698"/>
				<path fill="#56BA22" d="M369.623,178.788c0-2.139-1.734-3.873-3.873-3.873l0,0c-2.139,0-3.873,1.734-3.873,3.873l0,0
					c0,2.139,1.734,3.873,3.873,3.873l0,0C367.889,182.661,369.623,180.927,369.623,178.788L369.623,178.788z"/>
			</g>
		</g>
		<g>
			<path fill="#EF5854" d="M365.75,124.371c-6.895,0-12.918,3.667-16.273,9.146v19.892c3.356,5.478,9.378,9.146,16.273,9.146
				c6.895,0,12.918-3.668,16.274-9.147v-19.89C378.668,128.039,372.645,124.371,365.75,124.371z"/>
		</g>
		<g>
			<path fill="#FFFFFF" d="M355.042,144.446l6.484,6.484c1.213,1.213,3.181,1.213,4.394,0l10.54-10.54
				c1.213-1.213,1.213-3.18,0-4.394c-1.213-1.213-3.181-1.213-4.394,0l-8.343,8.343l-4.287-4.287c-1.213-1.213-3.181-1.213-4.394,0
				S353.829,143.232,355.042,144.446z"/>
		</g>
		<g>
			<path fill="#FFAEAE" d="M391.347,74.462c-7.072-6.052-16.147-9.384-25.551-9.384h-0.075c-0.194-0.033-0.399-0.055-0.587-0.046
				c-9.34,0.12-17.983,3.389-24.993,9.455c-0.684,0.592-1.092,1.441-1.126,2.345c-0.034,0.904,0.308,1.783,0.945,2.424l0.752,0.757
				c0.636,0.64,1.475,0.964,2.317,0.964c0.749,0,1.501-0.256,2.113-0.777c5.725-4.863,12.984-7.55,20.445-7.568
				c0.156,0.024,0.314,0.037,0.472,0.038c7.607,0.06,14.627,2.651,20.302,7.491c1.292,1.1,3.21,1.03,4.415-0.163l0.745-0.737
				c0.648-0.643,0.999-1.526,0.966-2.439C392.453,75.912,392.04,75.055,391.347,74.462z"/>
			<path fill="#FFAEAE" d="M381.725,83.673c-4.479-3.463-9.943-5.31-15.799-5.339c-0.115,0.003-0.154,0.001-0.273,0.013
				c-5.587,0.001-11.385,2.001-15.908,5.486c-0.745,0.575-1.207,1.442-1.266,2.382c-0.059,0.938,0.291,1.858,0.958,2.521
				l0.764,0.759c0.633,0.627,1.465,0.947,2.3,0.947c0.712,0,1.427-0.232,2.022-0.703c3.109-2.456,6.752-3.731,10.827-3.79
				c0.129-0.003,0.173-0.006,0.301-0.023h0.141c4.233,0,8.124,1.252,11.25,3.623c1.285,0.978,3.091,0.863,4.247-0.261l0.712-0.692
				c0.678-0.659,1.037-1.58,0.984-2.525C382.934,85.126,382.473,84.25,381.725,83.673z"/>
			<path fill="#FFAEAE" d="M371.611,92.906c-1.769-0.944-3.771-1.457-5.786-1.484c-0.034-0.008-0.152,0.004-0.18,0.003
				c-2.034,0.024-4.089,0.58-5.941,1.609c-0.89,0.493-1.499,1.375-1.646,2.382c-0.147,1.009,0.184,2.026,0.896,2.754l4.359,4.457
				c0.614,0.629,1.456,0.982,2.333,0.982c0.002,0,0.004,0,0.006,0c0.88-0.001,1.722-0.358,2.335-0.989l4.428-4.557
				c0.715-0.736,1.042-1.765,0.884-2.778C373.142,94.269,372.516,93.389,371.611,92.906z"/>
		</g>
	</g>
</g>
</svg>
